<svg width="64" height="64" fill="none" xmlns="http://www.w3.org/2000/svg"><path fill-rule="evenodd" clip-rule="evenodd" d="M19.2 0C8.596 0 0 8.596 0 19.2v25.6C0 55.404 8.596 64 19.2 64h25.6C55.404 64 64 55.404 64 44.8V19.2C64 8.596 55.404 0 44.8 0H19.2Zm0 6.4c-7.07 0-12.8 5.73-12.8 12.8v25.6c0 7.07 5.73 12.8 12.8 12.8h25.6c7.07 0 12.8-5.73 12.8-12.8V19.2c0-7.07-5.73-12.8-12.8-12.8H19.2Z" fill="#E5E7EB"/><path d="M35.554 18.176h-12.77v6.488h7.747l5.023-6.488ZM31.997 26.11l-9.213 12.01v6.156h19.538V37.75h-10.47l10.47-13.419v-6.156h-4.178L32 26.112l-.003-.002Z" fill="#E5E7EB"/><path d="M5.12 11.008a5.632 5.632 0 0 1 5.632-5.632h42.496a5.632 5.632 0 0 1 5.632 5.632v42.496a5.632 5.632 0 0 1-5.632 5.632H10.752a5.632 5.632 0 0 1-5.632-5.632V11.008Z" fill="#E5E7EB"/><path d="M31.2 39.035h11.996v7.477H20.81v-7.054L32.636 24.04H20.81v-7.434h22.387v7.054L31.2 39.035Z" fill="#1B232E"/></svg>